<svg width="1536" height="1100" viewBox="0 0 1536 1100" fill="none" xmlns="http://www.w3.org/2000/svg">
<g clip-path="url(#clip0_22_345)">
<path d="M1313.56 483.39C1309.96 488.346 1308.42 494.492 1309.29 500.475C1310.16 506.459 1313.35 511.79 1318.18 515.296C1323 518.802 1329.06 520.196 1335.02 519.17C1340.98 518.145 1346.35 514.785 1349.95 509.829L1313.56 483.39Z" stroke="#C2D3FF" stroke-opacity="0.15" stroke-width="4" stroke-linecap="round" stroke-linejoin="round"/>
<path d="M1326.42 465.687C1323.01 470.382 1321.66 476.278 1322.66 482.077C1323.66 487.876 1326.93 493.103 1331.76 496.609C1336.58 500.115 1342.56 501.613 1348.39 500.772C1354.21 499.931 1359.4 496.821 1362.81 492.126L1326.42 465.687Z" stroke="#C2D3FF" stroke-opacity="0.15" stroke-width="4" stroke-linecap="round" stroke-linejoin="round"/>
<path d="M1340 447C1336.4 451.956 1334.86 458.102 1335.73 464.085C1336.59 470.069 1339.79 475.4 1344.62 478.906C1349.44 482.412 1355.5 483.806 1361.46 482.781C1367.42 481.755 1372.79 478.395 1376.39 473.439L1340 447Z" stroke="#C2D3FF" stroke-opacity="0.15" stroke-width="4" stroke-linecap="round" stroke-linejoin="round"/>
</g>
<path d="M1211.62 178.891C1208.18 183.62 1206.71 189.484 1207.54 195.194C1208.37 200.903 1211.42 205.99 1216.02 209.335C1220.63 212.681 1226.41 214.011 1232.09 213.032C1237.78 212.054 1242.9 208.848 1246.34 204.119L1211.62 178.891Z" stroke="#C2D3FF" stroke-opacity="0.15" stroke-width="4" stroke-linecap="round" stroke-linejoin="round"/>
<path d="M1211.27 157.9C1208.02 162.38 1206.73 168.006 1207.68 173.539C1208.64 179.073 1211.76 184.061 1216.36 187.406C1220.97 190.752 1226.68 192.18 1232.23 191.378C1237.79 190.576 1242.74 187.608 1246 183.128L1211.27 157.9Z" stroke="#C2D3FF" stroke-opacity="0.15" stroke-width="4" stroke-linecap="round" stroke-linejoin="round"/>
<path d="M1211.62 135.971C1208.18 140.7 1206.71 146.564 1207.54 152.274C1208.37 157.983 1211.42 163.07 1216.02 166.415C1220.63 169.761 1226.41 171.091 1232.09 170.112C1237.78 169.134 1242.9 165.928 1246.34 161.199L1211.62 135.971Z" stroke="#C2D3FF" stroke-opacity="0.15" stroke-width="4" stroke-linecap="round" stroke-linejoin="round"/>
<g clip-path="url(#clip1_22_345)">
<path d="M229.786 958.113C232.445 963.332 237.014 967.308 242.488 969.168C247.962 971.027 253.891 970.617 258.973 968.028C264.055 965.439 267.872 960.883 269.585 955.361C271.297 949.84 270.766 943.806 268.107 938.588L229.786 958.113Z" stroke="#C2D3FF" stroke-opacity="0.15" stroke-width="4" stroke-linecap="round" stroke-linejoin="round"/>
<path d="M220.288 939.47C222.807 944.415 227.241 948.128 232.616 949.793C237.991 951.458 243.865 950.939 248.946 948.35C254.028 945.761 257.901 941.314 259.713 935.987C261.525 930.66 261.127 924.889 258.608 919.945L220.288 939.47Z" stroke="#C2D3FF" stroke-opacity="0.15" stroke-width="4" stroke-linecap="round" stroke-linejoin="round"/>
<path d="M210.261 919.792C212.92 925.011 217.489 928.988 222.963 930.847C228.436 932.707 234.366 932.297 239.448 929.708C244.529 927.119 248.346 922.562 250.059 917.041C251.772 911.52 251.241 905.486 248.581 900.267L210.261 919.792Z" stroke="#C2D3FF" stroke-opacity="0.15" stroke-width="4" stroke-linecap="round" stroke-linejoin="round"/>
</g>
<path d="M48.7431 278.035C51.5039 283.453 56.2473 287.581 61.93 289.512C67.6127 291.443 73.769 291.017 79.0447 288.329C84.3205 285.641 88.2834 280.91 90.0618 275.178C91.8401 269.446 91.2882 263.182 88.5274 257.764L48.7431 278.035Z" stroke="#C2D3FF" stroke-opacity="0.15" stroke-width="4" stroke-linecap="round" stroke-linejoin="round"/>
<path d="M63.3676 261.47C65.983 266.603 70.5871 270.458 76.1671 272.187C81.747 273.916 87.8456 273.377 93.1213 270.689C98.3971 268.001 102.418 263.384 104.299 257.853C106.18 252.323 105.767 246.332 103.152 241.199L63.3676 261.47Z" stroke="#C2D3FF" stroke-opacity="0.15" stroke-width="4" stroke-linecap="round" stroke-linejoin="round"/>
<path d="M77.4442 243.83C80.205 249.248 84.9484 253.377 90.6311 255.307C96.3138 257.238 102.47 256.812 107.746 254.124C113.022 251.436 116.985 246.706 118.763 240.974C120.541 235.241 119.989 228.977 117.229 223.559L77.4442 243.83Z" stroke="#C2D3FF" stroke-opacity="0.15" stroke-width="4" stroke-linecap="round" stroke-linejoin="round"/>
<g clip-path="url(#clip2_22_345)">
<path d="M560.907 346.46C560.816 346.369 560.729 346.282 560.632 346.196C559.169 344.871 557.175 344.238 555.083 344.433C552.99 344.628 550.968 345.636 549.453 347.239C547.938 348.842 547.053 350.911 546.99 352.997C546.926 355.083 547.69 357.018 549.114 358.384C550.539 359.75 552.51 360.436 554.601 360.294C556.692 360.151 558.734 359.192 560.285 357.624C561.836 356.056 562.771 354.005 562.887 351.915C563.004 349.826 562.293 347.866 560.907 346.46V346.46Z" stroke="#C2D3FF" stroke-opacity="0.15" stroke-width="4" stroke-linecap="round" stroke-linejoin="round"/>
<path d="M519.236 388.132C519.201 388.095 519.163 388.061 519.123 388.031L519.062 387.97C517.656 386.657 515.732 386 513.695 386.134C511.657 386.269 509.663 387.186 508.13 388.693C506.597 390.199 505.644 392.18 505.47 394.219C505.295 396.258 505.914 398.197 507.196 399.632C507.282 399.729 507.369 399.816 507.46 399.907C508.857 401.304 510.817 402.024 512.91 401.908C515.002 401.792 517.054 400.849 518.616 399.288C520.177 397.726 521.12 395.673 521.236 393.581C521.352 391.489 520.633 389.529 519.236 388.132V388.132Z" stroke="#C2D3FF" stroke-opacity="0.15" stroke-width="4" stroke-linecap="round" stroke-linejoin="round"/>
<path d="M560.632 346.196C554.259 339.982 545.398 336.821 535.971 337.398C526.544 337.974 517.311 342.243 510.277 349.277C503.243 356.311 498.974 365.544 498.398 374.971C497.821 384.398 500.982 393.259 507.196 399.632C505.914 398.197 505.295 396.258 505.47 394.219C505.644 392.18 506.597 390.199 508.13 388.693C509.663 387.186 511.657 386.269 513.695 386.134C515.732 386 517.656 386.657 519.062 387.97C515.654 384.368 513.954 379.407 514.327 374.154C514.7 368.9 517.116 363.774 521.057 359.878C524.997 355.982 530.146 353.627 535.396 353.32C540.646 353.013 545.579 354.778 549.132 358.236C547.76 356.861 547.042 354.942 547.13 352.887C547.219 350.832 548.108 348.804 549.607 347.234C551.106 345.665 553.098 344.678 555.157 344.484C557.216 344.29 559.181 344.904 560.632 346.196V346.196Z" stroke="#C2D3FF" stroke-opacity="0.15" stroke-width="4" stroke-linecap="round" stroke-linejoin="round"/>
</g>
<g clip-path="url(#clip3_22_345)">
<path d="M87.7771 816.329C87.8642 816.242 87.9465 816.16 88.0281 816.068C89.2882 814.676 89.8907 812.78 89.705 810.79C89.5193 808.8 88.5605 806.877 87.0362 805.436C85.5119 803.996 83.5449 803.154 81.5612 803.094C79.5775 803.034 77.7369 803.76 76.4381 805.115C75.1393 806.469 74.4869 808.344 74.6221 810.332C74.7574 812.321 75.6694 814.262 77.1607 815.737C78.652 817.212 80.6024 818.102 82.5895 818.212C84.5767 818.323 86.4404 817.647 87.7771 816.329V816.329Z" stroke="#C2D3FF" stroke-opacity="0.15" stroke-width="4" stroke-linecap="round" stroke-linejoin="round"/>
<path d="M48.149 776.701C48.1838 776.668 48.2159 776.632 48.2452 776.594L48.3032 776.536C49.5513 775.199 50.1767 773.37 50.0485 771.432C49.9204 769.494 49.0486 767.598 47.6157 766.14C46.1828 764.682 44.2998 763.776 42.3608 763.61C40.4218 763.445 38.5771 764.033 37.2128 765.252C37.1203 765.334 37.0381 765.416 36.951 765.503C35.6223 766.832 34.938 768.696 35.0485 770.685C35.1591 772.675 36.0554 774.627 37.5403 776.112C39.0253 777.597 40.9772 778.493 42.9667 778.604C44.9562 778.714 46.8203 778.03 48.149 776.701V776.701Z" stroke="#C2D3FF" stroke-opacity="0.15" stroke-width="4" stroke-linecap="round" stroke-linejoin="round"/>
<path d="M88.0282 816.068C93.9373 810.007 96.9438 801.58 96.3953 792.616C95.8468 783.651 91.7875 774.871 85.0983 768.182C78.409 761.493 69.6295 757.433 60.6647 756.885C51.6999 756.336 43.2731 759.343 37.2128 765.252C38.5771 764.033 40.4217 763.445 42.3607 763.61C44.2997 763.776 46.1828 764.682 47.6157 766.14C49.0486 767.598 49.9204 769.494 50.0485 771.432C50.1767 773.37 49.5513 775.199 48.3032 776.536C51.7282 773.295 56.4459 771.679 61.4417 772.033C66.4375 772.388 71.3122 774.686 75.0173 778.433C78.7223 782.18 80.9617 787.076 81.2538 792.069C81.5459 797.062 79.8674 801.752 76.5792 805.131C77.8863 803.827 79.7113 803.144 81.6654 803.228C83.6195 803.312 85.5483 804.157 87.0409 805.583C88.5335 807.009 89.4719 808.903 89.6563 810.861C89.8407 812.819 89.2565 814.687 88.0282 816.068V816.068Z" stroke="#C2D3FF" stroke-opacity="0.15" stroke-width="4" stroke-linecap="round" stroke-linejoin="round"/>
</g>
<g clip-path="url(#clip4_22_345)">
<path d="M572.773 905.122L581.565 937.935L548.752 946.727" stroke="#C2D3FF" stroke-opacity="0.15" stroke-width="4" stroke-linecap="round" stroke-linejoin="round"/>
<path d="M551.97 893.111L560.763 925.924L527.949 934.716" stroke="#C2D3FF" stroke-opacity="0.15" stroke-width="4" stroke-linecap="round" stroke-linejoin="round"/>
<path d="M531.168 881.101L539.96 913.914L507.147 922.706" stroke="#C2D3FF" stroke-opacity="0.15" stroke-width="4" stroke-linecap="round" stroke-linejoin="round"/>
</g>
<g clip-path="url(#clip5_22_345)">
<path d="M1389.4 835.964L1416.9 823.137L1429.73 850.644" stroke="#C2D3FF" stroke-opacity="0.15" stroke-width="4" stroke-linecap="round" stroke-linejoin="round"/>
<path d="M1382.06 856.131L1409.56 843.304L1422.39 870.81" stroke="#C2D3FF" stroke-opacity="0.15" stroke-width="4" stroke-linecap="round" stroke-linejoin="round"/>
<path d="M1374.72 876.297L1402.22 863.47L1415.05 890.977" stroke="#C2D3FF" stroke-opacity="0.15" stroke-width="4" stroke-linecap="round" stroke-linejoin="round"/>
</g>
<g clip-path="url(#clip6_22_345)">
<path d="M263.697 548.268L317.015 575.434L270.919 599.998L263.697 548.268Z" stroke="#C2D3FF" stroke-opacity="0.15" stroke-width="4" stroke-linecap="round" stroke-linejoin="round"/>
<path d="M276.718 522.714L330.035 549.881L283.939 574.445L276.718 522.714Z" stroke="#C2D3FF" stroke-opacity="0.15" stroke-width="4" stroke-linecap="round" stroke-linejoin="round"/>
</g>
<g clip-path="url(#clip7_22_345)">
<path d="M784.963 186.508L767.014 131.266L815.513 146.045L784.963 186.508Z" stroke="#C2D3FF" stroke-opacity="0.15" stroke-width="4" stroke-linecap="round" stroke-linejoin="round"/>
<path d="M758.488 195.111L740.539 139.869L789.037 154.647L758.488 195.111Z" stroke="#C2D3FF" stroke-opacity="0.15" stroke-width="4" stroke-linecap="round" stroke-linejoin="round"/>
</g>
<g clip-path="url(#clip8_22_345)">
<path d="M1206.07 1078.18L1190.15 1072.39L1194.83 1056.12L1178.91 1050.33L1183.59 1034.05L1167.67 1028.27L1172.34 1011.99" stroke="#C2D3FF" stroke-opacity="0.15" stroke-width="4" stroke-linecap="round" stroke-linejoin="round"/>
<path d="M1178.52 1008.84L1212.25 1075.03" stroke="#C2D3FF" stroke-opacity="0.15" stroke-width="4" stroke-linecap="round" stroke-linejoin="round"/>
</g>
<g clip-path="url(#clip9_22_345)">
<path d="M925.705 411.721L925.712 427.85L909.625 428.965L909.632 445.094L893.541 446.213L893.546 462.344L877.454 463.464" stroke="#C2D3FF" stroke-opacity="0.15" stroke-width="4" stroke-linecap="round" stroke-linejoin="round"/>
<path d="M872.622 458.958L920.873 407.215" stroke="#C2D3FF" stroke-opacity="0.15" stroke-width="4" stroke-linecap="round" stroke-linejoin="round"/>
</g>
<g clip-path="url(#clip10_22_345)">
<path d="M214.206 31.352C219.329 35.9643 213.723 42.1901 218.846 46.8024C223.968 51.4148 229.572 45.1873 234.693 49.7984C239.815 54.4096 234.21 60.6365 239.333 65.2489C244.455 69.8612 250.062 63.636 255.185 68.249C260.308 72.8619 254.705 79.0906 259.826 83.7012C264.947 88.3118 270.556 82.089 275.679 86.7025" stroke="#C2D3FF" stroke-opacity="0.15" stroke-width="6" stroke-linecap="round" stroke-linejoin="round"/>
</g>
<g clip-path="url(#clip11_22_345)">
<path d="M1076.17 733.803L1073.03 725.095L1071.71 721.449L1060.29 715.738L1064.77 728.086L1076.17 733.803Z" stroke="#C2D3FF" stroke-opacity="0.15" stroke-width="4" stroke-linecap="round" stroke-linejoin="round"/>
<path d="M1076.17 733.803L1121.9 717.266L1105.45 672.088L1097.21 675.07L1092.41 676.802L1104.3 709.657L1071.71 721.449L1073.03 725.095L1076.17 733.803Z" stroke="#C2D3FF" stroke-opacity="0.15" stroke-width="4" stroke-linecap="round" stroke-linejoin="round"/>
<path d="M1104.3 709.657L1092.41 676.802L1081.7 670.84L1093.58 703.695L1104.3 709.657Z" stroke="#C2D3FF" stroke-opacity="0.15" stroke-width="4" stroke-linecap="round" stroke-linejoin="round"/>
<path d="M1071.71 721.449L1104.3 709.657L1093.58 703.695L1060.29 715.738L1071.71 721.449Z" stroke="#C2D3FF" stroke-opacity="0.15" stroke-width="4" stroke-linecap="round" stroke-linejoin="round"/>
<path d="M1092.41 676.802L1097.21 675.07L1105.45 672.088L1094.06 666.367L1081.7 670.84L1092.41 676.802Z" stroke="#C2D3FF" stroke-opacity="0.15" stroke-width="4" stroke-linecap="round" stroke-linejoin="round"/>
</g>
<circle opacity="0.7" cx="42.1106" cy="42.1106" r="40.1106" transform="matrix(1 0 0 -1 1428 289.544)" stroke="#C2D3FF" stroke-opacity="0.15" stroke-width="4"/>
<circle opacity="0.7" cx="42.1106" cy="42.1106" r="40.1106" transform="matrix(1 0 0 -1 1436.78 310.28)" stroke="#C2D3FF" stroke-opacity="0.15" stroke-width="4"/>
<g clip-path="url(#clip12_22_345)">
<circle opacity="0.7" cx="42.1106" cy="42.1106" r="40.1106" transform="matrix(0.809017 0.587785 0.587785 -0.809017 587.675 699.223)" stroke="#C2D3FF" stroke-opacity="0.15" stroke-width="4"/>
<circle opacity="0.7" cx="42.1106" cy="42.1106" r="40.1106" transform="matrix(0.809017 0.587785 0.587785 -0.809017 582.589 721.16)" stroke="#C2D3FF" stroke-opacity="0.15" stroke-width="4"/>
</g>
<g clip-path="url(#clip13_22_345)">
<path d="M502.627 146.073L499.438 154.765L498.107 158.408L503.179 170.119L507.69 157.785L502.627 146.073Z" stroke="#C2D3FF" stroke-opacity="0.15" stroke-width="4" stroke-linecap="round" stroke-linejoin="round"/>
<path d="M502.627 146.073L456.972 129.352L440.529 174.53L448.762 177.545L453.546 179.299L465.562 146.492L498.107 158.408L499.438 154.765L502.627 146.073Z" stroke="#C2D3FF" stroke-opacity="0.15" stroke-width="4" stroke-linecap="round" stroke-linejoin="round"/>
<path d="M465.562 146.492L453.546 179.299L457.921 190.754L469.937 157.946L465.562 146.492Z" stroke="#C2D3FF" stroke-opacity="0.15" stroke-width="4" stroke-linecap="round" stroke-linejoin="round"/>
<path d="M498.107 158.408L465.562 146.492L469.937 157.946L503.179 170.119L498.107 158.408Z" stroke="#C2D3FF" stroke-opacity="0.15" stroke-width="4" stroke-linecap="round" stroke-linejoin="round"/>
<path d="M453.546 179.299L448.762 177.545L440.529 174.53L445.582 186.238L457.921 190.754L453.546 179.299Z" stroke="#C2D3FF" stroke-opacity="0.15" stroke-width="4" stroke-linecap="round" stroke-linejoin="round"/>
</g>
<defs>
<clipPath id="clip0_22_345">
<rect width="121.569" height="121.569" fill="white" transform="matrix(0.809017 0.587785 0.587785 -0.809017 1252 528.824)"/>
</clipPath>
<clipPath id="clip1_22_345">
<rect width="116.238" height="116.238" fill="white" transform="matrix(0.891007 -0.45399 -0.45399 -0.891007 241.771 1030.28)"/>
</clipPath>
<clipPath id="clip2_22_345">
<rect width="80.4104" height="71.9462" fill="white" transform="matrix(0.707107 -0.707107 -0.707107 -0.707107 521.874 417.732)"/>
</clipPath>
<clipPath id="clip3_22_345">
<rect width="76.4672" height="68.418" fill="white" transform="matrix(0.707107 0.707107 0.707107 -0.707107 20 779.21)"/>
</clipPath>
<clipPath id="clip4_22_345">
<rect width="76.6621" height="76.6621" fill="white" transform="matrix(0.866025 0.5 0.5 -0.866025 498 933.949)"/>
</clipPath>
<clipPath id="clip5_22_345">
<rect width="68.4915" height="68.4915" fill="white" transform="matrix(0.34202 -0.939693 -0.939693 -0.34202 1426.36 897.28)"/>
</clipPath>
<clipPath id="clip6_22_345">
<rect width="76.0563" height="76.0563" fill="white" transform="matrix(0.891007 0.45399 0.45399 -0.891007 236 584.767)"/>
</clipPath>
<clipPath id="clip7_22_345">
<rect width="73.8259" height="73.8259" fill="white" transform="matrix(-0.309017 -0.951057 -0.951057 0.309017 829.026 180.467)"/>
</clipPath>
<clipPath id="clip8_22_345">
<rect width="79.032" height="79.032" fill="white" transform="matrix(0.453991 0.891007 0.891007 -0.453991 1134 1028.86)"/>
</clipPath>
<clipPath id="clip9_22_345">
<rect width="75.265" height="75.265" fill="white" transform="matrix(0.681998 -0.731354 -0.731354 -0.681998 905.045 492.28)"/>
</clipPath>
<clipPath id="clip10_22_345">
<rect width="88" height="88" fill="white" transform="matrix(0.743145 0.669131 0.669131 -0.743145 180 65.3967)"/>
</clipPath>
<clipPath id="clip11_22_345">
<rect width="61.0467" height="61.0467" fill="white" transform="matrix(0.34202 0.939693 0.939693 -0.34202 1046 681.879)"/>
</clipPath>
<clipPath id="clip12_22_345">
<rect width="123" height="113" fill="white" transform="matrix(0.809017 0.587785 0.587785 -0.809017 561 710.419)"/>
</clipPath>
<clipPath id="clip13_22_345">
<rect width="61.0467" height="61.0467" fill="white" transform="matrix(0.34202 -0.939693 -0.939693 -0.34202 492.365 205.244)"/>
</clipPath>
</defs>
</svg>
